<?xml version="1.0" standalone="no"?>
<!DOCTYPE svg PUBLIC "-//W3C//DTD SVG 20010904//EN"
 "http://www.w3.org/TR/2001/REC-SVG-20010904/DTD/svg10.dtd">
<svg version="1.0" xmlns="http://www.w3.org/2000/svg"
 width="700.000000pt" height="700.000000pt" viewBox="0 0 700.000000 700.000000"
 preserveAspectRatio="xMidYMid meet">
<metadata>
Created by potrace 1.14, written by Peter Selinger 2001-2017
</metadata>
<g transform="translate(0.000000,700.000000) scale(0.100000,-0.100000)"
fill="#000000" stroke="none">
<path d="M1175 6318 c-3 -24 -44 -371 -90 -773 -166 -1422 -342 -2846 -550
-4450 -30 -231 -55 -428 -55 -437 0 -17 35 -18 605 -18 l604 0 5 33 c3 17 15
118 26 222 33 300 86 741 136 1115 81 616 246 1732 262 1773 4 11 157 -476
418 -1335 l411 -1353 553 0 553 0 411 1352 c226 744 414 1347 417 1340 4 -7
11 -46 17 -87 7 -41 34 -219 61 -395 118 -760 252 -1768 326 -2455 8 -80 18
-160 21 -177 l5 -33 604 0 c586 0 605 1 605 19 0 10 -9 86 -20 167 -188 1424
-471 3719 -635 5149 -19 171 -38 327 -41 348 l-6 37 -638 0 -638 0 -146 -437
c-305 -920 -573 -1781 -807 -2595 -45 -159 -85 -288 -89 -288 -4 0 -20 44 -35
98 -229 812 -539 1813 -861 2785 l-146 437 -638 0 -639 0 -6 -42z m1082 -270
c27 -35 438 -1246 636 -1878 189 -600 424 -1399 558 -1898 24 -89 46 -162 49
-162 3 0 25 73 49 162 149 551 391 1373 581 1973 197 623 587 1770 613 1803 7
9 101 12 408 12 219 0 400 -3 402 -7 2 -5 -45 -116 -105 -248 -619 -1356
-1153 -2849 -1541 -4305 l-33 -125 -374 0 -374 0 -13 55 c-361 1471 -915 3024
-1566 4395 -57 121 -102 223 -100 228 2 4 183 7 402 7 307 0 401 -3 408 -12z"/>
</g>
</svg>
